<svg xmlns="http://www.w3.org/2000/svg" viewBox="0 0 4.74 256.77"><defs><style>.cls-1{fill:#fff;}</style></defs><title>border2</title><g id="Layer_2" data-name="Layer 2"><g id="Layer_1-2" data-name="Layer 1"><path class="cls-1" d="M4.74,255.77a43.08,43.08,0,0,1-.1-5.45,1,1,0,0,0-1-1,1,1,0,0,0-1,1,43.08,43.08,0,0,0,.1,5.45,1,1,0,0,0,2,0Z"/><path class="cls-1" d="M4.74,240.19a43.15,43.15,0,0,1-.1-5.45,1,1,0,0,0-1-1,1,1,0,0,0-1,1,43.15,43.15,0,0,0,.1,5.45,1,1,0,0,0,1,1,1,1,0,0,0,1-1Z"/><path class="cls-1" d="M4.74,224.61a43.27,43.27,0,0,1-.1-5.46,1,1,0,0,0-1-1,1,1,0,0,0-1,1,43.27,43.27,0,0,0,.1,5.46,1,1,0,0,0,1,1,1,1,0,0,0,1-1Z"/><path class="cls-1" d="M4.74,209a43.08,43.08,0,0,1-.1-5.45,1,1,0,0,0-1-1,1,1,0,0,0-1,1,43.08,43.08,0,0,0,.1,5.45,1,1,0,0,0,2,0Z"/><path class="cls-1" d="M4.74,193.44a43.08,43.08,0,0,1-.1-5.45,1,1,0,0,0-1-1,1,1,0,0,0-1,1,43.08,43.08,0,0,0,.1,5.45,1,1,0,0,0,2,0Z"/><path class="cls-1" d="M4.74,177.86a43.15,43.15,0,0,1-.1-5.45,1,1,0,0,0-1-1,1,1,0,0,0-1,1,43.15,43.15,0,0,0,.1,5.45,1,1,0,0,0,1,1,1,1,0,0,0,1-1Z"/><path class="cls-1" d="M4.74,162.28a43.27,43.27,0,0,1-.1-5.46,1,1,0,0,0-1-1,1,1,0,0,0-1,1,43.27,43.27,0,0,0,.1,5.46,1,1,0,0,0,1,1,1,1,0,0,0,1-1Z"/><path class="cls-1" d="M4.74,148a43.08,43.08,0,0,1-.1-5.45,1,1,0,0,0-1-1,1,1,0,0,0-1,1,43.08,43.08,0,0,0,.1,5.45,1,1,0,0,0,2,0Z"/><path class="cls-1" d="M4.74,131.11a43.08,43.08,0,0,1-.1-5.45,1,1,0,0,0-1-1,1,1,0,0,0-1,1,43.08,43.08,0,0,0,.1,5.45,1,1,0,0,0,2,0Z"/><path class="cls-1" d="M3.44,116.83a43.15,43.15,0,0,1-.1-5.45,1,1,0,0,0-1-1,1,1,0,0,0-1,1,43.15,43.15,0,0,0,.1,5.45,1,1,0,0,0,1,1,1,1,0,0,0,1-1Z"/><path class="cls-1" d="M2.14,100a41.34,41.34,0,0,1-.09-5.45,1,1,0,0,0-2,0A41.34,41.34,0,0,0,.14,100a1,1,0,0,0,1,1,1,1,0,0,0,1-1Z"/><path class="cls-1" d="M2.14,84.36a41.29,41.29,0,0,1-.09-5.45,1,1,0,0,0-1-1,1,1,0,0,0-1,1,41.29,41.29,0,0,0,.09,5.45,1,1,0,0,0,1,1,1,1,0,0,0,1-1Z"/><path class="cls-1" d="M2.14,68.78a41.29,41.29,0,0,1-.09-5.45,1,1,0,0,0-1-1,1,1,0,0,0-1,1,41.29,41.29,0,0,0,.09,5.45,1,1,0,0,0,1,1,1,1,0,0,0,1-1Z"/><path class="cls-1" d="M2.14,51.9a41.29,41.29,0,0,1-.09-5.45,1,1,0,0,0-1-1,1,1,0,0,0-1,1A41.29,41.29,0,0,0,.14,51.9a1,1,0,0,0,1,1,1,1,0,0,0,1-1Z"/><path class="cls-1" d="M3.44,36.32a43.15,43.15,0,0,1-.1-5.45,1,1,0,0,0-1-1,1,1,0,0,0-1,1,43.15,43.15,0,0,0,.1,5.45,1,1,0,0,0,1,1,1,1,0,0,0,1-1Z"/><path class="cls-1" d="M4.74,22a43.08,43.08,0,0,1-.1-5.45,1,1,0,0,0-1-1,1,1,0,0,0-1,1A43.08,43.08,0,0,0,2.74,22a1,1,0,0,0,2,0Z"/><path class="cls-1" d="M4.74,6.45A43.08,43.08,0,0,1,4.64,1a1,1,0,0,0-1-1,1,1,0,0,0-1,1,43.08,43.08,0,0,0,.1,5.45,1,1,0,1,0,2,0Z"/></g></g></svg>