<?xml version="1.0" encoding="utf-8"?>
<!-- Generator: Adobe Illustrator 23.0.6, SVG Export Plug-In . SVG Version: 6.00 Build 0)  -->
<svg version="1.1" id="Layer_1" xmlns="http://www.w3.org/2000/svg" xmlns:xlink="http://www.w3.org/1999/xlink" x="0px" y="0px"
	 viewBox="0 0 4.7 256.8" style="enable-background:new 0 0 4.7 256.8;" xml:space="preserve">
<style type="text/css">
	.st0{fill:#FF8552;}
</style>
<title>border2</title>
<g>
	<g id="Layer_1-2">
		<path class="st0" d="M4.7,255.8c-0.1-1.8-0.2-3.6-0.1-5.4c0-0.6-0.4-1-1-1s-1,0.4-1,1c-0.1,1.8,0,3.6,0.1,5.4c0,0.6,0.4,1,1,1
			S4.7,256.3,4.7,255.8z"/>
		<path class="st0" d="M4.7,240.2c-0.1-1.8-0.2-3.6-0.1-5.4c0-0.6-0.4-1-1-1s-1,0.4-1,1c-0.1,1.8,0,3.6,0.1,5.4c0,0.6,0.4,1,1,1
			S4.7,240.7,4.7,240.2z"/>
		<path class="st0" d="M4.7,224.6c-0.1-1.8-0.2-3.6-0.1-5.5c0-0.6-0.4-1-1-1s-1,0.4-1,1c-0.1,1.8,0,3.6,0.1,5.5c0,0.6,0.4,1,1,1
			S4.7,225.2,4.7,224.6z"/>
		<path class="st0" d="M4.7,209c-0.1-1.8-0.2-3.6-0.1-5.4c0-0.6-0.4-1-1-1s-1,0.4-1,1c-0.1,1.8,0,3.6,0.1,5.4c0,0.6,0.4,1,1,1
			S4.7,209.6,4.7,209z"/>
		<path class="st0" d="M4.7,193.4c-0.1-1.8-0.2-3.6-0.1-5.4c0-0.6-0.4-1-1-1s-1,0.4-1,1c-0.1,1.8,0,3.6,0.1,5.4c0,0.6,0.4,1,1,1
			S4.7,194,4.7,193.4z"/>
		<path class="st0" d="M4.7,177.9c-0.1-1.8-0.2-3.6-0.1-5.4c0-0.6-0.4-1-1-1s-1,0.4-1,1c-0.1,1.8,0,3.6,0.1,5.4c0,0.6,0.4,1,1,1
			S4.7,178.4,4.7,177.9z"/>
		<path class="st0" d="M4.7,162.3c-0.1-1.8-0.2-3.6-0.1-5.5c0-0.6-0.4-1-1-1s-1,0.4-1,1c-0.1,1.8,0,3.6,0.1,5.5c0,0.6,0.4,1,1,1
			S4.7,162.8,4.7,162.3z"/>
		<path class="st0" d="M4.7,148c-0.1-1.8-0.2-3.6-0.1-5.4c0-0.6-0.4-1-1-1s-1,0.4-1,1c-0.1,1.8,0,3.6,0.1,5.4c0,0.6,0.4,1,1,1
			S4.7,148.6,4.7,148z"/>
		<path class="st0" d="M4.7,131.1c-0.1-1.8-0.2-3.6-0.1-5.4c0-0.6-0.4-1-1-1s-1,0.4-1,1c-0.1,1.8,0,3.6,0.1,5.4c0,0.6,0.4,1,1,1
			S4.7,131.7,4.7,131.1z"/>
		<path class="st0" d="M3.4,116.8c-0.1-1.8-0.2-3.6-0.1-5.4c0-0.6-0.4-1-1-1s-1,0.4-1,1c-0.1,1.8,0,3.6,0.1,5.4c0,0.6,0.4,1,1,1
			S3.4,117.4,3.4,116.8z"/>
		<path class="st0" d="M2.1,100C2,98.2,2,96.4,2.1,94.6c0-0.6-0.4-1-1-1s-1,0.4-1,1C0,96.4,0,98.2,0.1,100c0,0.6,0.4,1,1,1
			S2.1,100.6,2.1,100z"/>
		<path class="st0" d="M2.1,84.4C2,82.5,2,80.7,2.1,78.9c0-0.6-0.4-1-1-1s-1,0.4-1,1C0,80.7,0,82.5,0.1,84.4c0,0.6,0.4,1,1,1l0,0
			C1.7,85.4,2.1,84.9,2.1,84.4C2.1,84.4,2.1,84.4,2.1,84.4z"/>
		<path class="st0" d="M2.1,68.8C2,67,2,65.1,2.1,63.3c0-0.6-0.4-1-1-1s-1,0.4-1,1C0,65.1,0,67,0.1,68.8c0,0.6,0.4,1,1,1l0,0
			C1.7,69.8,2.1,69.3,2.1,68.8C2.1,68.8,2.1,68.8,2.1,68.8z"/>
		<path class="st0" d="M2.1,51.9C2,50.1,2,48.3,2.1,46.5c0-0.6-0.4-1-1-1s-1,0.4-1,1C0,48.3,0,50.1,0.1,51.9c0,0.6,0.4,1,1,1
			S2.1,52.5,2.1,51.9z"/>
		<path class="st0" d="M3.4,36.3c-0.1-1.8-0.2-3.6-0.1-5.5c0-0.6-0.4-1-1-1s-1,0.4-1,1c-0.1,1.8,0,3.6,0.1,5.5c0,0.6,0.4,1,1,1
			S3.4,36.9,3.4,36.3z"/>
		<path class="st0" d="M4.7,22c-0.1-1.8-0.2-3.6-0.1-5.5c0-0.6-0.4-1-1-1s-1,0.4-1,1c-0.1,1.8,0,3.6,0.1,5.5c0,0.6,0.4,1,1,1
			C4.3,23,4.7,22.6,4.7,22z"/>
		<path class="st0" d="M4.7,6.4C4.6,4.6,4.6,2.8,4.6,1c0-0.6-0.4-1-1-1s-1,0.4-1,1c-0.1,1.8,0,3.6,0.1,5.4c0,0.6,0.4,1,1,1
			S4.7,7,4.7,6.4z"/>
	</g>
</g>
</svg>
