<svg xmlns="http://www.w3.org/2000/svg" viewBox="0 0 80.76 37.61"><title>Asset 9</title><g id="Layer_2" data-name="Layer 2"><g id="PATTERN"><path d="M58.41,5.38c5.06-2.44,12.65-1.32,18.36,4.54a12.59,12.59,0,0,1,.86.94c4.52,5.35,2.89,9.56-1.7,11.77A15.68,15.68,0,0,1,58,19.24C53.57,14.7,53,8,58.41,5.38Zm14.77,15.2c4.55-2.2,4.82-5.66.69-9.89-3.86-4-9.28-4.5-12.52-3.17l-.44.22c-4.62,2.22-3.41,7.1-.21,10.38C63.69,21.18,69.72,22.25,73.18,20.58Z"/><path d="M47,19.24a15.68,15.68,0,0,1-17.94,3.39c-4.59-2.21-6.22-6.42-1.7-11.77a12.59,12.59,0,0,1,.86-.94c5.71-5.86,13.3-7,18.36-4.54C52,8,51.42,14.7,47,19.24Zm-2.71-1.12c3.2-3.28,4.41-8.16-.21-10.38l-.44-.22C40.4,6.19,35,6.73,31.12,10.69c-4.13,4.23-3.86,7.69.69,9.89C35.27,22.25,41.3,21.18,44.29,18.12Z"/><path d="M24.66,29.77c0-.32.17-.33.38-.33a.53.53,0,0,1,.48.35c.07.2,1.32,3.61,2.06,5.4.78-1.95,1.57-3.89,2.34-5.85a.77.77,0,0,1,.39-.16.41.41,0,0,1,.45.43c0,.34-2.82,6.93-2.86,7a.44.44,0,0,1-.31.17.47.47,0,0,1-.37-.28C25.24,32,24.66,30.36,24.66,29.77Z"/><path d="M32.81,29.7a.4.4,0,0,1,.36.23l2.52,6.89a.62.62,0,0,1,0,.16.36.36,0,0,1-.39.34A.7.7,0,0,1,35,37.2l-.93-2.28-2.43-.33-.83,2.34a.62.62,0,0,1-.49.44.34.34,0,0,1-.36-.32c0-.07.17-.55,2.52-7.12C32.47,29.82,32.63,29.7,32.81,29.7Zm0,1.58-.9,2.5,1.89.22Z"/><path d="M36.57,28.63v-.17c0-.2.21-.28.46-.28h.07c.16,0,.38,0,.38.19l.14,7.53,1.1,0h.22c.33,0,.75,0,.76.32-.05.47-.39.48-.9.49l-1.07,0c-.51,0-.94-.07-.95-.38C36.67,33.17,36.7,31.77,36.57,28.63Z"/><path d="M40.05,33.85c0-.22.3-.24.58-.24l3.69,0a.59.59,0,0,1,.45.62c0,.09-.25.24-.32.3H40.52c-.38,0-.47-.2-.47-.58Z"/><path d="M44.76,36.9c0-.47.25-.57.56-.57s.51.05.76.05c.8,0,.8,0,.8-4.38,0-.86,0-1.89,0-3.11,0-.16.29-.19.45-.19s.45.07.45.22v.13c0,.39.05,2.41.05,4.14v.92c0,1.48,0,3.26-1.5,3.26H46c-.41,0-1.21,0-1.26-.39Z"/><path d="M51.53,29.7a.39.39,0,0,1,.35.23l2.53,6.89a.65.65,0,0,1,0,.16.36.36,0,0,1-.39.34.7.7,0,0,1-.35-.12l-.94-2.28-2.42-.33-.84,2.34a.6.6,0,0,1-.49.44.34.34,0,0,1-.35-.32c0-.07.17-.55,2.51-7.12C51.18,29.82,51.34,29.7,51.53,29.7Zm0,1.58-.89,2.5L52.5,34Z"/><path d="M55.29,28.63v-.17c0-.2.21-.28.45-.28h.08c.16,0,.38,0,.38.19l.13,7.53,1.1,0h.22c.34,0,.75,0,.76.32,0,.47-.39.48-.89.49l-1.08,0c-.5,0-.93-.07-.94-.38C55.39,33.17,55.41,31.77,55.29,28.63Z"/><path d="M60,29.55c.05-.53,1.05-.71,1.9-.71l.36,0a2.05,2.05,0,0,1,2.11,2,1.55,1.55,0,0,1,0,.22A2.23,2.23,0,0,1,62.84,33c1.11.1,2.16.64,2.16,1.88a.9.9,0,0,1,0,.23c-.16,1.72-1.75,2.38-3.26,2.38A4.53,4.53,0,0,1,59.64,37Zm.46,7,.24,0c.32,0,.65,0,1,0a2.17,2.17,0,0,0,2.42-1.83v-.1c0-.79-1-1.11-1.9-1.19-.22,0-.43,0-.63,0a4,4,0,0,0-.91.08Zm.39-6.32c0,1.09-.11,2.11-.12,2.38a2.17,2.17,0,0,0,.66.11,2,2,0,0,0,2-1.67V31a1.38,1.38,0,0,0-1.31-1.36H62c-.4,0-1.07.16-1.11.54Z"/><path d="M66.31,30c0-1.1.43-1.12.77-1.12l2.44,0a.47.47,0,0,1,.48.5c0,.29-.14.39-.37.39H67.17s0,0-.08,3.23h.21L69,33h.18a.46.46,0,0,1,.47.45c0,.18-.16.37-.53.38l-1.77.07c-.24,0-.25,0-.26.2L67,36.16h.14l2.56-.31c.35,0,.62.09.62.41s-.17.46-.34.46l-3.09.3c-.4,0-.65-.32-.65-1v0Z"/><path d="M71.59,28.68l1.58-.18a4.55,4.55,0,0,1,.61-.05,2.2,2.2,0,0,1,2.44,2.34,2.36,2.36,0,0,1-1.74,2.53L76.06,37a.54.54,0,0,1,0,.2c0,.23-.18.37-.44.37s-.31,0-.34-.14c-.46-.92-.78-1.9-1.72-4h-.1a7.27,7.27,0,0,1-1-.09H72.4l0,4c0,.14-.21.29-.43.29s-.46-.15-.48-.66Zm1.84,3.91A1.7,1.7,0,0,0,75.35,31a1.46,1.46,0,0,0-1.44-1.58,9.92,9.92,0,0,0-1.39.19l0,2.89A2.89,2.89,0,0,0,73.43,32.59Z"/><path d="M76.63,27.56l3.56,0h.14c.23,0,.43.28.43.54a.38.38,0,0,1-.31.38H78.94l0,2.68c0,1,0,3.67,0,5.46,0,.17-.09.44-.35.44s-.5-.49-.5-.89L78,28.48l-1.51,0c-.35,0-.43-.21-.43-.58S76.35,27.56,76.63,27.56Z"/><path d="M1.78,1.79C1.78.8,3,.69,4.13.69l15-.12c1,0,2.53.91,2.07,2.1-1.89,5-.81,2.48-16.19,30.11l13.74-.24c.95,0,1.73,1.23,1.73,2.4a1.65,1.65,0,0,1-1.23,1.69L3.13,36.57H2.9C1.34,36.57,0,36,0,34.64c0-.11.74-1.63.09-.43L16.14,4.71,3.68,4.89c-1.56,0-1.9-.88-1.9-2.57Z"/><path d="M41.71,12.17c2.79,0,2.8-3.12,0-3.12s-2.79,3.12,0,3.12Z"/><path d="M63.14,12.17c2.79,0,2.79-3.12,0-3.12s-2.8,3.12,0,3.12Z"/><path d="M33.45.4a11.4,11.4,0,0,1,7.41.48.35.35,0,0,1-.07.68L31.2,4.09a.45.45,0,0,1-.49-.17c-.41-.62-1-2.26,2.68-3.5Z"/><path d="M70.12.4a11.36,11.36,0,0,0-7.4.48.35.35,0,0,0,.07.68l9.58,2.53a.45.45,0,0,0,.49-.17c.41-.62,1-2.26-2.68-3.5Z"/></g></g></svg>