<?xml version="1.0" encoding="utf-8"?>
<!-- Generator: Adobe Illustrator 23.0.6, SVG Export Plug-In . SVG Version: 6.00 Build 0)  -->
<svg version="1.1" id="Layer_1" xmlns="http://www.w3.org/2000/svg" xmlns:xlink="http://www.w3.org/1999/xlink" x="0px" y="0px"
	 viewBox="0 0 413.8 298.6" style="enable-background:new 0 0 413.8 298.6;" xml:space="preserve">
<style type="text/css">
	.st0{fill:#222222;}
</style>
<g id="Calque_2">
	<g>
		<path class="st0" d="M395.1,249.2c-0.2-0.2-0.4-0.3-0.5-0.5c0.1-0.3,0.1-0.7,0.2-1c1.7-7.7,2.9-15.5,3.7-23.3
			c1-9,1.6-18.1,1.6-27.1c0-11.1-0.2-22.2,0-33.3c0.5-23.2,1.5-46.4-0.9-69.5c-2-20-6.3-40.8-22.4-54.5
			c-14.7-12.6-34.2-17.6-53.2-18.3c-22.9-0.8-45.6,3.6-68.4,4c-22.3,0.4-44.5-1.3-66.7-3.1c-43.6-3.7-88.1-8.4-131.4,1
			c-5.2,1.1-10.3,2.5-15.4,4c-0.2,0.1-0.5,0.2-0.7,0.3C21,35.7,6.3,56,2.9,72.4C-1,91.3,0,111.1,0.5,130.2c0.5,23,1.8,45.9,3.8,68.8
			c0.9,10.8,1.7,21.8,4.4,32.4c2.4,9.4,6.7,18.3,12.9,25.9C32.7,271.1,49.2,280.2,66,285c20.9,6,43,5.5,64.5,4.2
			c22.8-1.3,45.5-2.7,68.3-3.1c23.2-0.4,46.5,0,69.7,1c11.1,0.5,22.2,1.3,33.3,2c8.4,0.6,16.8,1,25.1,0.8c16.5-0.5,33.7-3.5,47-13.9
			c1.8-1.4,3.5-3,5.1-4.8c4.7,3,10.4,3.9,15.8,2.4c7.6-2.4,12-11.2,7-18.1C399.9,253,397.5,251.2,395.1,249.2z M394.2,249.9
			C394.2,250.5,394.2,250.3,394.2,249.9z M393.9,248.1c0,0,0-0.1-0.1-0.1L393.9,248.1L393.9,248.1z"/>
		<path class="st0" d="M27,278.3c-0.8-0.2-1.6-0.5-2.5-0.8c0,0,0.1,0,0.1,0.1c-0.2-0.1-0.4-0.2-0.6-0.3l-1.2-0.6
			c-0.8-0.4-1.5-0.8-2.3-1.3c-0.4-0.3-0.8-0.5-1.2-0.8l-0.4-0.3c-1.3-1.1-2.6-2.3-3.7-3.6c-0.3-0.3-0.6-0.7-0.8-1
			c1,1.1-0.1-0.1-0.3-0.4c-0.5-0.8-1-1.5-1.4-2.3c-1.3-2.2-4.1-2.9-6.2-1.6c-2.1,1.3-2.9,4.1-1.6,6.2c4.3,7.5,11.4,13.1,19.7,15.5
			c2.4,0.7,5-0.6,5.7-3c0.7-2.4-0.6-5-3-5.7C27.1,278.4,27.1,278.3,27,278.3z"/>
		<path class="st0" d="M24.6,277.5L24.6,277.5C23.6,277,24.2,277.4,24.6,277.5z"/>
		<path class="st0" d="M19.6,290.1c-2.2-1-4.3-2.2-6.2-3.6c-1.6-1.3-3-2.7-4.3-4.2c-0.9-0.8-2-1.3-3.2-1.3c-2.5,0-4.5,2-4.6,4.6
			c0.1,1.2,0.5,2.3,1.3,3.2c3.4,3.9,7.6,7.1,12.3,9.2c1.1,0.6,2.3,0.7,3.5,0.5c2.4-0.7,3.9-3.2,3.2-5.6
			C21.4,291.7,20.7,290.7,19.6,290.1z"/>
		<path class="st0" d="M370.5,20.3c2.2,1.1,4.3,2.4,6.4,3.7c1.1,0.7,2.1,1.5,3.2,2.2l0.6,0.5c-0.7-0.5,0,0,0.1,0.1l1.5,1.2
			c1.9,1.6,3.7,3.3,5.4,5c0.9,0.9,1.7,1.8,2.5,2.7c0.4,0.5,0.8,1,1.3,1.5l0.5,0.6c0.1,0.1,0.9,1.1,0.3,0.3c0.6,1,1.6,1.7,2.7,2.1
			c1.2,0.3,2.5,0.1,3.5-0.5c1.9-1.2,3.2-4.2,1.6-6.2c-6.7-8.9-15.2-16.1-25-21.3c-2.2-1.2-4.9-0.5-6.2,1.6
			C367.7,16.1,368.2,19.1,370.5,20.3z"/>
		<path class="st0" d="M413.3,23.7c-4.6-9.9-12.2-18-21.8-23.1c-2.2-1.2-4.9-0.5-6.2,1.6c-1.2,2.2-0.5,4.9,1.6,6.2
			c1.1,0.6,2.2,1.2,3.2,1.9c0.5,0.3,1,0.7,1.5,1s1.3,0.7,1.5,1.1l-0.4-0.3l0.4,0.3l0.6,0.5c0.5,0.4,0.9,0.8,1.4,1.2
			c0.9,0.8,1.8,1.7,2.6,2.6s1.6,1.8,2.3,2.7l0.3,0.3l-0.2-0.2c0.2,0.2,0.3,0.4,0.5,0.7c0.4,0.5,0.7,1,1.1,1.5
			c1.4,2.1,2.6,4.2,3.6,6.5c1,2.2,4.3,2.9,6.2,1.6C413.7,28.6,414.5,25.9,413.3,23.7z"/>
	</g>
</g>
</svg>
