<svg xmlns="http://www.w3.org/2000/svg" viewBox="0 0 34.01 42.32"><defs><style>.cls-1{fill:#fff;}</style></defs><title>text_deco_left_white.svg</title><g id="Layer_2" data-name="Layer 2"><g id="Layer_1-2" data-name="Layer 1"><g id="Layer_1-2-2" data-name="Layer 1-2"><path class="cls-1" d="M19.78,0A3.72,3.72,0,0,0,16,3.64a4.41,4.41,0,0,0,0,.52A68.62,68.62,0,0,0,26,32.82c1.22,2.11,4.41,2.38,6.2,1.41A3.66,3.66,0,0,0,34,31.71a4.69,4.69,0,0,0-.9-3c.5.81-.11-.25-.16-.37l-.36-.64a18.5,18.5,0,0,0-.91-1.7c-.52-1-1-2-1.52-3.11-.9-2.06-1.77-4.19-2.51-6.37l-.53-1.68c-.06-.12-.25-.88-.06-.12L26.83,14c-.22-1.16-.57-2.28-.8-3.44-.39-2.2-.79-4.39-1-6.59S22.3.05,19.78,0Z"/><path class="cls-1" d="M17.84,41.45a4.45,4.45,0,0,0,1.21-6.29,40.65,40.65,0,0,1-4.33-6c-.29-.58-.61-1.07-.89-1.64a5.52,5.52,0,0,1-.42-.75l.1.26-.15-.4c-.51-1-1-2.12-1.45-3.23a32.36,32.36,0,0,1-1.24-3.46c-.14-.63-.33-1.16-.48-1.78L10,17.37l-.1-.49.1.49a4.43,4.43,0,0,1-.36-1.83c-.05-.58-.2-1.2-.26-1.78A33.07,33.07,0,0,1,9,10.05,4.64,4.64,0,0,0,4.12,6,4.63,4.63,0,0,0,0,10.87,49.73,49.73,0,0,0,11.55,40.46a4.48,4.48,0,0,0,6.25,1Z"/></g></g></g></svg>