<svg xmlns="http://www.w3.org/2000/svg" viewBox="0 0 33.96 42.32"><defs><style>.cls-1{fill:#222;}</style></defs><title>text_deco_right</title><g id="Layer_2" data-name="Layer 2"><g id="Layer_1-2" data-name="Layer 1"><path class="cls-1" d="M8.91,4c-.18,2.2-.57,4.39-1,6.59-.23,1.16-.58,2.28-.8,3.44l-.23.69c.19-.76,0,0-.06.12l-.53,1.68c-.74,2.18-1.61,4.31-2.51,6.37C3.33,24,2.81,25,2.29,26a17.13,17.13,0,0,0-.87,1.66l-.36.64C1,28.45.4,29.51.9,28.7a4.56,4.56,0,0,0-.89,3,3.61,3.61,0,0,0,1.74,2.52c1.79,1,5,.7,6.2-1.41a68.66,68.66,0,0,0,10-28.66A3.72,3.72,0,0,0,14.19,0C11.67.05,9.14,1.72,8.91,4Z"/><path class="cls-1" d="M22.42,40.46A49.78,49.78,0,0,0,34,10.87a4.53,4.53,0,1,0-9-.82,34.31,34.31,0,0,1-.34,3.71c-.06.58-.21,1.2-.26,1.78A4.48,4.48,0,0,1,24,17.37l.1-.49-.1.49-.19.76c-.15.62-.34,1.15-.48,1.78a33.17,33.17,0,0,1-1.24,3.46c-.47,1.11-.94,2.22-1.45,3.23l-.15.4.1-.26a5.41,5.41,0,0,1-.42.75c-.28.57-.6,1.06-.88,1.64a41.73,41.73,0,0,1-4.34,6c-1.56,1.85-.78,5.13,1.21,6.29A4.48,4.48,0,0,0,22.42,40.46Z"/></g></g></svg>