<svg xmlns="http://www.w3.org/2000/svg" viewBox="0 0 33.96 42.32"><defs><style>.cls-1{fill:#222;}</style></defs><title>text_deco_left</title><g id="Layer_2" data-name="Layer 2"><g id="Layer_1-2" data-name="Layer 1"><path class="cls-1" d="M19.77,0A3.72,3.72,0,0,0,16,4.16,68.66,68.66,0,0,0,26,32.82c1.22,2.11,4.41,2.38,6.2,1.41A3.65,3.65,0,0,0,34,31.71a4.63,4.63,0,0,0-.9-3c.5.81-.11-.25-.16-.37l-.36-.64A17.13,17.13,0,0,0,31.67,26c-.52-1-1-2-1.52-3.11-.9-2.06-1.77-4.19-2.51-6.37l-.53-1.68c-.06-.12-.25-.88-.06-.12l-.23-.69c-.22-1.16-.57-2.28-.8-3.44-.39-2.2-.79-4.39-1-6.59S22.29.05,19.77,0Z"/><path class="cls-1" d="M17.83,41.45c2-1.16,2.77-4.44,1.21-6.29a40.92,40.92,0,0,1-4.33-6c-.29-.58-.61-1.07-.89-1.64a5.41,5.41,0,0,1-.42-.75l.1.26-.15-.4c-.51-1-1-2.12-1.45-3.23a33.17,33.17,0,0,1-1.24-3.46c-.14-.63-.33-1.16-.48-1.78L10,17.37l-.1-.49.1.49a4.48,4.48,0,0,1-.36-1.83c-.05-.58-.2-1.2-.26-1.78A34.31,34.31,0,0,1,9,10.05,4.65,4.65,0,0,0,4.11,6,4.64,4.64,0,0,0,0,10.87,49.78,49.78,0,0,0,11.54,40.46,4.48,4.48,0,0,0,17.83,41.45Z"/></g></g></svg>